<?xml version="1.0" encoding="UTF-8" standalone="no"?>
<svg
   xmlns:dc="http://purl.org/dc/elements/1.1/"
   xmlns:cc="http://creativecommons.org/ns#"
   xmlns:rdf="http://www.w3.org/1999/02/22-rdf-syntax-ns#"
   xmlns:svg="http://www.w3.org/2000/svg"
   xmlns="http://www.w3.org/2000/svg"
   viewBox="0 0 7559 2835"
   height="2835"
   width="7559"
   xml:space="preserve"
   id="svg2"
   version="1.1"><metadata
     id="metadata8"><rdf:RDF><cc:Work
         rdf:about=""><dc:format>image/svg+xml</dc:format><dc:type
           rdf:resource="http://purl.org/dc/dcmitype/StillImage" /></cc:Work></rdf:RDF></metadata><defs
     id="defs6"><clipPath
       id="clipPath14"
       clipPathUnits="userSpaceOnUse"><path
         id="path12"
         d="M 0,7.8298974 H 5669.25 V 2134.0798 H 0 Z" /></clipPath><clipPath
       id="clipPath24"
       clipPathUnits="userSpaceOnUse"><path
         style="clip-rule:evenodd"
         id="path22"
         d="M 0,0 H 23621.875 V 8859.375 H 0 Z" /></clipPath><clipPath
       id="clipPath36"
       clipPathUnits="userSpaceOnUse"><path
         style="clip-rule:evenodd"
         id="path34"
         d="M 0,0 H 23621.875 V 8859.375 H 0 Z" /></clipPath><clipPath
       id="clipPath42"
       clipPathUnits="userSpaceOnUse"><path
         id="path40"
         d="M 0,0 H 23622 V 8860 H 0 Z" /></clipPath><clipPath
       id="clipPath46"
       clipPathUnits="userSpaceOnUse"><path
         style="clip-rule:evenodd"
         id="path44"
         d="M 0,0 H 23621.703 V 8859.3105 H 0 Z" /></clipPath><clipPath
       id="clipPath50"
       clipPathUnits="userSpaceOnUse"><path
         id="path48"
         d="M 4589.8647,3995.3208 H 9704.4394 V 7375.8945 H 4589.8647 Z" /></clipPath><clipPath
       id="clipPath54"
       clipPathUnits="userSpaceOnUse"><path
         id="path52"
         d="m 5354.2642,4193.5522 c 209.1391,-121.7487 452.6362,-186.3576 707.3374,-186.3576 433.2158,0 817.1347,186.3576 1087.1479,486.6208 266.2783,-300.2632 657.6665,-486.6208 1087.522,-486.6208 802.1953,0 1463.5976,657.6667 1463.5976,1463.5979 V 7363.8716 H 8943.2344 V 6611.3457 5470.7925 c 0,-391.3882 -319.3096,-711.0718 -706.9629,-711.0718 -387.6543,0 -711.0723,319.6836 -711.0723,711.0718 v 1140.5532 752.5259 H 6772.2998 V 6611.3457 5470.7925 c 0,-391.3882 -319.3101,-711.0718 -711.0718,-711.0718 -387.6538,0 -706.9638,319.3101 -706.9638,711.0718 v 1140.5532 752.5259 H 4601.7383 V 5470.7925 4007.1946 h 752.5259 z" /></clipPath><clipPath
       id="clipPath58"
       clipPathUnits="userSpaceOnUse"><path
         id="path56"
         d="M 0,0 H 5099 V 3357 H 0 Z" /></clipPath><clipPath
       id="clipPath62"
       clipPathUnits="userSpaceOnUse"><path
         id="path60"
         d="M 9893.8682,3995.3208 H 13259.871 V 7375.8945 H 9893.8682 Z" /></clipPath><clipPath
       id="clipPath66"
       clipPathUnits="userSpaceOnUse"><path
         id="path64"
         d="m 11581.371,6611.3457 c 505.667,0 919.837,-414.543 919.837,-927.6797 0,-509.4023 -414.544,-923.9453 -919.837,-923.9453 -513.137,0 -927.68,414.543 -927.68,923.9453 0,513.1367 414.543,927.6797 927.68,927.6797 m 1672.736,-927.6797 c 0,585.5879 -296.529,1098.7251 -752.525,1398.9888 -262.171,178.5146 -581.481,281.2168 -919.838,281.2168 -931.414,0 -1680.2059,-752.8999 -1680.2059,-1680.2056 -0.374,-923.9453 748.4179,-1676.4714 1679.8329,-1676.4714 338.356,0 657.666,102.7019 919.837,277.4822 455.997,300.2636 752.526,817.5087 752.526,1398.9892" /></clipPath><clipPath
       id="clipPath70"
       clipPathUnits="userSpaceOnUse"><path
         id="path68"
         d="M 0,0 H 3354 V 3357 H 0 Z" /></clipPath><clipPath
       id="clipPath74"
       clipPathUnits="userSpaceOnUse"><path
         id="path72"
         d="m 12706.156,3995.3208 h 3497.145 v 3380.5737 h -3497.145 z" /></clipPath><clipPath
       id="clipPath78"
       clipPathUnits="userSpaceOnUse"><path
         id="path76"
         d="m 15352.59,4007.1946 h 847.76 l -1744.815,3356.677 -1748.924,-3356.677 h 847.76 l 900.789,1725.7683 z" /></clipPath><clipPath
       id="clipPath82"
       clipPathUnits="userSpaceOnUse"><path
         id="path80"
         d="M 0,0 H 3495 V 3357 H 0 Z" /></clipPath><clipPath
       id="clipPath86"
       clipPathUnits="userSpaceOnUse"><path
         id="path84"
         d="M 15707.873,4024.4639 H 19030.16 V 7375.8946 H 15707.873 Z" /></clipPath><clipPath
       id="clipPath90"
       clipPathUnits="userSpaceOnUse"><path
         id="path88"
         d="m 17385.344,6710.6865 c -423.879,0 -786.883,-259.9297 -938.883,-628.5366 h 1354.547 v -723.7695 h -1373.594 c 138.928,-395.1226 515.379,-678.2071 957.93,-678.2071 442.552,0 819.002,283.0845 957.929,678.2071 h 676.715 c -155.734,-759.9951 -828.34,-1331.7657 -1634.644,-1331.7657 -921.703,0 -1668.627,746.9244 -1668.627,1668.6285 0,921.7041 747.297,1668.6284 1668.627,1668.6284 788.379,0 1449.033,-547.1216 1623.439,-1282.0952 h -684.181 c -152,368.9804 -515.004,628.5366 -938.883,628.5366" /></clipPath><clipPath
       id="clipPath94"
       clipPathUnits="userSpaceOnUse"><path
         id="path92"
         d="M 0,0 H 3304 V 3338 H 0 Z" /></clipPath><clipPath
       id="clipPath98"
       clipPathUnits="userSpaceOnUse"><path
         id="path96"
         d="M 0,0 H 9298 V 2466 H 0 Z" /></clipPath></defs><g
     clip-path="url(#clipPath14)"
     transform="matrix(1.3333333,0,0,-1.3333333,0,2845.4397)"
     id="g10"><g
       transform="matrix(0.23999999,0,0,-0.23999999,0,2134.0798)"
       id="g16"><g
         id="g18"><g
           clip-path="url(#clipPath24)"
           id="g20"><g
             transform="scale(3.125)"
             id="g26"><path
               id="path28"
               style="fill:#ffffff;fill-opacity:1;fill-rule:nonzero;stroke:none"
               d="M 0,0 H 7559 V 2835 H 0 Z" /></g></g></g><g
         id="g30"><g
           clip-path="url(#clipPath36)"
           id="g32"><g
             id="g38" /><g
             id="g196"><g
               id="g194"
               clip-path="url(#clipPath42)"><g
                 id="g106"><g
                   id="g104"
                   clip-path="url(#clipPath46)"><g
                     id="g102"
                     transform="scale(3.1249774)"><path
                       id="path100"
                       style="fill:#121212;fill-opacity:1;fill-rule:nonzero;stroke:none"
                       d="M 0,0 H 7559 V 2835 H 0 Z" /></g></g></g><g
                 id="g124"><g
                   id="g122"
                   clip-path="url(#clipPath50)"><g
                     id="g120"
                     clip-path="url(#clipPath54)"><g
                       id="g118"
                       transform="translate(4601,4007)"><g
                         id="g108" /><g
                         id="g116"><g
                           id="g114"
                           clip-path="url(#clipPath58)"><g
                             id="g112"
                             transform="matrix(14.571439,0,0,14.571439,-185.99268,-186.53638)"><path
                               id="path110"
                               style="fill:#ffffff;fill-opacity:1;fill-rule:nonzero;stroke:none"
                               d="M 0,0 H 1015 V 256 H 0 Z" /></g></g></g></g></g></g></g><g
                 id="g142"><g
                   id="g140"
                   clip-path="url(#clipPath62)"><g
                     id="g138"
                     clip-path="url(#clipPath66)"><g
                       id="g136"
                       transform="translate(9901,4007)"><g
                         id="g126" /><g
                         id="g134"><g
                           id="g132"
                           clip-path="url(#clipPath70)"><g
                             id="g130"
                             transform="matrix(14.571439,0,0,14.571439,-5485.9927,-186.53638)"><path
                               id="path128"
                               style="fill:#ffffff;fill-opacity:1;fill-rule:nonzero;stroke:none"
                               d="M 0,0 H 1015 V 256 H 0 Z" /></g></g></g></g></g></g></g><g
                 id="g160"><g
                   id="g158"
                   clip-path="url(#clipPath74)"><g
                     id="g156"
                     clip-path="url(#clipPath78)"><g
                       id="g154"
                       transform="translate(12706,4007)"><g
                         id="g144" /><g
                         id="g152"><g
                           id="g150"
                           clip-path="url(#clipPath82)"><g
                             id="g148"
                             transform="matrix(14.571439,0,0,14.571439,-8290.9922,-186.53638)"><path
                               id="path146"
                               style="fill:#ffffff;fill-opacity:1;fill-rule:nonzero;stroke:none"
                               d="M 0,0 H 1015 V 256 H 0 Z" /></g></g></g></g></g></g></g><g
                 id="g178"><g
                   id="g176"
                   clip-path="url(#clipPath86)"><g
                     id="g174"
                     clip-path="url(#clipPath90)"><g
                       id="g172"
                       transform="translate(15716,4026)"><g
                         id="g162" /><g
                         id="g170"><g
                           id="g168"
                           clip-path="url(#clipPath94)"><g
                             id="g166"
                             transform="matrix(14.571439,0,0,14.571439,-11300.992,-205.53638)"><path
                               id="path164"
                               style="fill:#f78c32;fill-opacity:1;fill-rule:nonzero;stroke:none"
                               d="M 0,0 H 1015 V 256 H 0 Z" /></g></g></g></g></g></g></g><g
                 id="g192"
                 transform="translate(4415,1331)"><g
                   id="g180" /><g
                   id="g190"><g
                     id="g188"
                     clip-path="url(#clipPath98)"><g
                       id="g186"
                       transform="matrix(23.477766,0,0,23.477766,0.00732422,-234.40271)"><text
                         id="text184"
                         style="font-variant:normal;font-weight:normal;font-size:89.80999756px;font-family:Cambria;-inkscape-font-specification:Cambria;writing-mode:lr-tb;fill:#ffffff;fill-opacity:1;fill-rule:nonzero;stroke:none"
                         transform="translate(0.03125,95)"><tspan
                           id="tspan182"
                           y="0"
                           x="0 55.246017 94.839081 138.68521 188.49442 232.29671 307.0105 331.95898">Academia</tspan></text>
</g></g></g></g></g></g></g></g></g></g></svg>