<?xml version="1.0" encoding="UTF-8" standalone="no"?>
<svg
   xmlns:dc="http://purl.org/dc/elements/1.1/"
   xmlns:cc="http://creativecommons.org/ns#"
   xmlns:rdf="http://www.w3.org/1999/02/22-rdf-syntax-ns#"
   xmlns:svg="http://www.w3.org/2000/svg"
   xmlns="http://www.w3.org/2000/svg"
   viewBox="0 0 1920 1080"
   height="1080"
   width="1920"
   xml:space="preserve"
   id="svg2"
   version="1.1"><metadata
     id="metadata8"><rdf:RDF><cc:Work
         rdf:about=""><dc:format>image/svg+xml</dc:format><dc:type
           rdf:resource="http://purl.org/dc/dcmitype/StillImage" /></cc:Work></rdf:RDF></metadata><defs
     id="defs6"><clipPath
       id="clipPath14"
       clipPathUnits="userSpaceOnUse"><path
         id="path12"
         d="M 0,7.920007 H 1440 V 817.92 H 0 Z" /></clipPath><clipPath
       id="clipPath24"
       clipPathUnits="userSpaceOnUse"><path
         style="clip-rule:evenodd"
         id="path22"
         d="M 0,0 H 6000 V 3375 H 0 Z" /></clipPath><clipPath
       id="clipPath36"
       clipPathUnits="userSpaceOnUse"><path
         style="clip-rule:evenodd"
         id="path34"
         d="M 0,0 H 6000 V 3375 H 0 Z" /></clipPath><clipPath
       id="clipPath48"
       clipPathUnits="userSpaceOnUse"><path
         id="path46"
         d="M 0,0 H 6000 V 3375 H 0 Z" /></clipPath><clipPath
       id="clipPath54"
       clipPathUnits="userSpaceOnUse"><path
         id="path52"
         d="M 0,0 H 6000 V 3375 H 0 Z" /></clipPath><clipPath
       id="clipPath60"
       clipPathUnits="userSpaceOnUse"><path
         id="path58"
         d="m 1256.1478,1747.575 h 376.2511 v 379.1677 h -376.2511 z" /></clipPath><clipPath
       id="clipPath66"
       clipPathUnits="userSpaceOnUse"><path
         id="path64"
         d="m 1329.3248,1821.5747 h 71.7188 c 0.6875,0 1.25,0.5625 1.25,1.25 v 300.3743 c 0,0.6875 0.5625,1.25 1.25,1.25 h 79.1561 c 0.6875,0 1.25,-0.5625 1.25,-1.25 v -300.3743 c 0,-0.6875 0.5625,-1.25 1.25,-1.25 h 65.8125 c 0.6874,0 1.2499,0.5625 1.2499,1.25 v 300.4368 c 0,0.6875 0.5314,1.2187 1.2189,1.25 l 76.1873,1.5 c 0.6875,0.031 1.2813,-0.5313 1.2813,-1.25 v -338.7492 c 0,0 0,-37.1248 -35.625,-37.1248 h -35.6563 l -61.5936,-0.9063 c -0.2812,0 -27.2812,0.7188 -27.5,0.9063 -1.1562,-0.1563 -12.4062,1.9687 -17.8125,7.4687 -8.75,8.9063 -12.6562,23.5624 -11.875,28.9374 0,0 -0.5625,-10.3125 -1.0312,-11.1563 l -5.0625,-8.8123 c -2.8125,-4.9375 -6.75,-9.1563 -11.5,-12.3125 -4.3124,-2.3438 -8.9374,-3.875 -13.5624,-4.1875 l -123.1561,-1.25 c -0.062,0 -0.062,0 -0.125,0 -1.0938,0.125 -26.7188,3.375 -28.1875,29.5311 -1.4375,25.75 -0.094,326.0929 0,347.6866 0,0.6875 0.5625,1.2188 1.2812,1.1875 l 70.2499,-1.5 c 0.6875,0 1.2187,-0.5625 1.2187,-1.25 l -2.9375,-300.4055 c 0,-0.6875 0.5625,-1.25 1.25,-1.25" /></clipPath><clipPath
       id="clipPath74"
       clipPathUnits="userSpaceOnUse"><path
         id="path72"
         d="M 0,0 H 374 V 380 H 0 Z" /></clipPath><clipPath
       id="clipPath90"
       clipPathUnits="userSpaceOnUse"><path
         id="path88"
         d="M 0,0 H 6000 V 3375 H 0 Z" /></clipPath><clipPath
       id="clipPath96"
       clipPathUnits="userSpaceOnUse"><path
         id="path94"
         d="M 0,0 H 6000 V 3375 H 0 Z" /></clipPath><clipPath
       id="clipPath102"
       clipPathUnits="userSpaceOnUse"><path
         id="path100"
         d="m 1795.0898,1746.0961 h 221.8727 v 378.9965 h -221.8727 z" /></clipPath><clipPath
       id="clipPath108"
       clipPathUnits="userSpaceOnUse"><path
         id="path106"
         d="m 1947.1724,2045.8654 h -81.6565 V 1821.678 h 81.6565 z m 35.6563,-298.4373 h -117.3128 c 2.3437,1.8125 -2.4375,-1.4062 -38.5939,0 -34.2501,1.3438 -29.6876,27.5625 -29.6876,27.5625 -2.9688,-12.625 -0.062,289.2809 1.5312,313.9371 0.031,0.25 -0.062,7.9063 -0.062,8.1563 0.1875,15.375 13.1563,27.5 28.5001,27.5 h 166.0005 c 20.7814,-5.9375 23.7502,-25.25 23.7502,-25.25 l -5.5625,-329.2496 c 1.5,-10.4063 -16.9377,-26.0625 -28.5627,-22.6563" /></clipPath><clipPath
       id="clipPath116"
       clipPathUnits="userSpaceOnUse"><path
         id="path114"
         d="M 0,0 H 222 V 379 H 0 Z" /></clipPath><clipPath
       id="clipPath132"
       clipPathUnits="userSpaceOnUse"><path
         id="path130"
         d="M 0,0 H 6000 V 3375 H 0 Z" /></clipPath><clipPath
       id="clipPath138"
       clipPathUnits="userSpaceOnUse"><path
         id="path136"
         d="M 0,0 H 6000 V 3375 H 0 Z" /></clipPath><clipPath
       id="clipPath144"
       clipPathUnits="userSpaceOnUse"><path
         id="path142"
         d="m 2178.8157,1749.0062 h 223.802 v 376.1964 h -223.802 z" /></clipPath><clipPath
       id="clipPath150"
       clipPathUnits="userSpaceOnUse"><path
         id="path148"
         d="m 2178.8157,1749.0062 h 77.2182 v 298.4375 h 75.7183 v -298.4375 h 69.781 v 344.4689 c 0,0 4.3125,22.9062 -25.3437,30.75 -0.9063,0.25 -1.8438,0.3437 -2.7813,0.3437 h -161.2178 c -0.5,0 -0.9687,-0.031 -1.4687,-0.094 -4.4688,-0.6875 -27.2498,-5.4063 -31.7185,-30 -0.125,-0.6563 -0.1563,-1.3438 -0.1563,-2.0313 l -0.031,-343.4376 z" /></clipPath><clipPath
       id="clipPath158"
       clipPathUnits="userSpaceOnUse"><path
         id="path156"
         d="M 0,0 H 224 V 376 H 0 Z" /></clipPath><clipPath
       id="clipPath174"
       clipPathUnits="userSpaceOnUse"><path
         id="path172"
         d="M 0,0 H 6000 V 3375 H 0 Z" /></clipPath><clipPath
       id="clipPath180"
       clipPathUnits="userSpaceOnUse"><path
         id="path178"
         d="M 0,0 H 6000 V 3375 H 0 Z" /></clipPath><clipPath
       id="clipPath186"
       clipPathUnits="userSpaceOnUse"><path
         id="path184"
         d="m 2572.2749,1749.0062 h 223.5857 v 377.5726 h -223.5857 z" /></clipPath><clipPath
       id="clipPath192"
       clipPathUnits="userSpaceOnUse"><path
         id="path190"
         d="m 2642.0562,1824.725 v 301.4061 h 77.2187 V 1824.725 h 75.7188 v -75.7188 h -222.7188 v 77.2188 z" /></clipPath><clipPath
       id="clipPath200"
       clipPathUnits="userSpaceOnUse"><path
         id="path198"
         d="M 0,0 H 223 V 378 H 0 Z" /></clipPath><clipPath
       id="clipPath216"
       clipPathUnits="userSpaceOnUse"><path
         id="path214"
         d="M 0,0 H 6000 V 3375 H 0 Z" /></clipPath><clipPath
       id="clipPath222"
       clipPathUnits="userSpaceOnUse"><path
         id="path220"
         d="M 0,0 H 6000 V 3375 H 0 Z" /></clipPath><clipPath
       id="clipPath228"
       clipPathUnits="userSpaceOnUse"><path
         id="path226"
         d="m 2958.9023,1747.9055 h 221.8726 v 378.9966 h -221.8726 z" /></clipPath><clipPath
       id="clipPath234"
       clipPathUnits="userSpaceOnUse"><path
         id="path232"
         d="m 3110.9839,2047.6741 h -81.656 v -224.1868 h 81.656 z m 64.2187,-275.7804 c 1.5,-10.4062 -16.9375,-26.0624 -28.5625,-22.6562 h -117.3122 c 2.3437,1.8125 -2.4375,-1.4062 -38.5935,0 -34.25,1.3438 -29.6875,27.5624 -29.6875,27.5624 -2.9688,-12.6249 -0.062,289.2804 1.5312,313.9364 0.031,0.25 -0.062,7.9063 -0.031,8.1563 0.1562,15.3437 13.1562,27.5 28.5,27.5 h 165.9682 c 20.7813,-5.9375 23.75,-25.25 23.75,-25.25 l -5.5625,-329.2489 z" /></clipPath><clipPath
       id="clipPath242"
       clipPathUnits="userSpaceOnUse"><path
         id="path240"
         d="M 0,0 H 222 V 379 H 0 Z" /></clipPath><clipPath
       id="clipPath258"
       clipPathUnits="userSpaceOnUse"><path
         id="path256"
         d="M 0,0 H 6000 V 3375 H 0 Z" /></clipPath><clipPath
       id="clipPath264"
       clipPathUnits="userSpaceOnUse"><path
         id="path262"
         d="M 0,0 H 6000 V 3375 H 0 Z" /></clipPath><clipPath
       id="clipPath270"
       clipPathUnits="userSpaceOnUse"><path
         id="path268"
         d="m 3345.8345,1749.0062 h 224.1968 v 377.4564 h -224.1968 z" /></clipPath><clipPath
       id="clipPath276"
       clipPathUnits="userSpaceOnUse"><path
         id="path274"
         d="m 3345.8345,1749.0062 h 197.4687 c 0,0 20.781,0 23.7498,31.1875 l 2.9687,31.1875 v 314.7501 h -72.7497 l -1.4688,-302.8751 h -74.25 l 2.9688,301.3124 -78.6875,1.5627 z" /></clipPath><clipPath
       id="clipPath284"
       clipPathUnits="userSpaceOnUse"><path
         id="path282"
         d="M 0,0 H 226 V 378 H 0 Z" /></clipPath><clipPath
       id="clipPath300"
       clipPathUnits="userSpaceOnUse"><path
         id="path298"
         d="M 0,0 H 6000 V 3375 H 0 Z" /></clipPath><clipPath
       id="clipPath306"
       clipPathUnits="userSpaceOnUse"><path
         id="path304"
         d="M 0,0 H 6000 V 3375 H 0 Z" /></clipPath><clipPath
       id="clipPath312"
       clipPathUnits="userSpaceOnUse"><path
         id="path310"
         d="m 3730.3689,1748.2219 h 224.2 v 377.4617 h -224.2 z" /></clipPath><clipPath
       id="clipPath318"
       clipPathUnits="userSpaceOnUse"><path
         id="path316"
         d="m 3730.3689,1748.2219 h 197.4687 c 0,0 20.7813,0 23.75,31.1875 l 2.9688,31.1875 v 314.75 h -72.75 l -1.5,-302.875 h -74.2188 l 2.9688,301.3125 -78.6875,1.5625 z" /></clipPath><clipPath
       id="clipPath326"
       clipPathUnits="userSpaceOnUse"><path
         id="path324"
         d="M 0,0 H 225 V 378 H 0 Z" /></clipPath><clipPath
       id="clipPath342"
       clipPathUnits="userSpaceOnUse"><path
         id="path340"
         d="M 0,0 H 6000 V 3375 H 0 Z" /></clipPath><clipPath
       id="clipPath348"
       clipPathUnits="userSpaceOnUse"><path
         id="path346"
         d="M 0,0 H 6000 V 3375 H 0 Z" /></clipPath><clipPath
       id="clipPath354"
       clipPathUnits="userSpaceOnUse"><path
         id="path352"
         d="m 4120.8784,1749.0062 h 227.1689 v 377.1356 h -227.1689 z" /></clipPath><clipPath
       id="clipPath360"
       clipPathUnits="userSpaceOnUse"><path
         id="path358"
         d="m 4120.8784,1749.0062 v 376.3439 h 227.1563 v -77.9064 h -151.4375 l 1.5,-74.25 111.3437,1.5 -1.5,-74.25 -111.3437,-1.5 v -75.6875 h 151.4375 v -74.25 z" /></clipPath><clipPath
       id="clipPath368"
       clipPathUnits="userSpaceOnUse"><path
         id="path366"
         d="M 0,0 H 229 V 377 H 0 Z" /></clipPath><clipPath
       id="clipPath384"
       clipPathUnits="userSpaceOnUse"><path
         id="path382"
         d="M 0,0 H 6000 V 3375 H 0 Z" /></clipPath><clipPath
       id="clipPath390"
       clipPathUnits="userSpaceOnUse"><path
         id="path388"
         d="M 0,0 H 6000 V 3375 H 0 Z" /></clipPath><clipPath
       id="clipPath396"
       clipPathUnits="userSpaceOnUse"><path
         id="path394"
         d="m 4506.8999,1747.1718 h 227.169 v 377.1356 h -227.169 z" /></clipPath><clipPath
       id="clipPath402"
       clipPathUnits="userSpaceOnUse"><path
         id="path400"
         d="m 4506.8999,1747.1718 v 376.3438 h 227.1563 v -77.9063 h -151.4375 l 1.5,-74.25 111.3437,1.5 -1.5,-74.25 -111.3437,-1.5 v -75.6875 h 151.4375 v -74.25 z" /></clipPath><clipPath
       id="clipPath410"
       clipPathUnits="userSpaceOnUse"><path
         id="path408"
         d="M 0,0 H 229 V 377 H 0 Z" /></clipPath><clipPath
       id="clipPath426"
       clipPathUnits="userSpaceOnUse"><path
         id="path424"
         d="M 0,0 H 6000 V 3375 H 0 Z" /></clipPath><clipPath
       id="clipPath432"
       clipPathUnits="userSpaceOnUse"><path
         id="path430"
         d="M 0,0 H 6000 V 3375 H 0 Z" /></clipPath><clipPath
       id="clipPath438"
       clipPathUnits="userSpaceOnUse"><path
         id="path436"
         d="m 1214.4307,2213.5923 h 1266.8266 v 835.2705 H 1214.4307 Z" /></clipPath><clipPath
       id="clipPath444"
       clipPathUnits="userSpaceOnUse"><path
         id="path442"
         d="m 1403.1246,2262.178 c 51.7211,-30.1099 111.8802,-46.0752 174.8924,-46.0752 107.2058,0 202.1491,46.0752 268.9251,120.3786 65.8047,-74.3034 162.6299,-120.3786 268.8643,-120.3786 198.3855,0 361.9866,162.6902 361.9866,361.9861 v 468.2204 h -187.094 v -186.1228 -282.0976 c 0,-96.8252 -78.9778,-175.8028 -174.8926,-175.8028 -95.9144,0 -175.8029,78.9776 -175.8029,175.8028 v 282.0976 186.1836 h -186.1834 v -186.1836 -282.0976 c 0,-96.8252 -78.9779,-175.8028 -175.8031,-175.8028 -95.9147,0 -174.8924,78.9776 -174.8924,175.8028 v 282.0976 186.1836 h -186.1837 v -468.2812 -361.9861 h 186.1837 z" /></clipPath><clipPath
       id="clipPath452"
       clipPathUnits="userSpaceOnUse"><path
         id="path450"
         d="M 0,0 H 1262 V 831 H 0 Z" /></clipPath><clipPath
       id="clipPath468"
       clipPathUnits="userSpaceOnUse"><path
         id="path466"
         d="M 0,0 H 6000 V 3375 H 0 Z" /></clipPath><clipPath
       id="clipPath474"
       clipPathUnits="userSpaceOnUse"><path
         id="path472"
         d="M 0,0 H 6000 V 3375 H 0 Z" /></clipPath><clipPath
       id="clipPath480"
       clipPathUnits="userSpaceOnUse"><path
         id="path478"
         d="m 2526.5012,2213.5923 h 831.7903 v 835.2705 h -831.7903 z" /></clipPath><clipPath
       id="clipPath486"
       clipPathUnits="userSpaceOnUse"><path
         id="path484"
         d="m 2943.2217,2860.1865 c 125.0532,0 227.5241,-102.4704 227.5241,-229.4055 0,-126.0242 -102.4709,-228.4949 -227.5241,-228.4949 -126.9351,0 -229.4058,102.4707 -229.4058,228.4949 0,126.9351 102.4707,229.4055 229.4058,229.4055 m 413.7075,-229.4055 c 0,144.7825 -73.332,271.7173 -186.1834,346.0208 -64.8942,44.1933 -143.872,69.5683 -227.5241,69.5683 -230.377,0 -415.5894,-186.1836 -415.5894,-415.5891 0,-228.4949 185.2124,-414.6177 415.5894,-414.6177 83.7129,0 162.6909,25.375 227.5241,68.6577 112.8514,74.3035 186.1834,202.149 186.1834,346.0208" /></clipPath><clipPath
       id="clipPath494"
       clipPathUnits="userSpaceOnUse"><path
         id="path492"
         d="M 0,0 H 830 V 831 H 0 Z" /></clipPath><clipPath
       id="clipPath510"
       clipPathUnits="userSpaceOnUse"><path
         id="path508"
         d="M 0,0 H 6000 V 3375 H 0 Z" /></clipPath><clipPath
       id="clipPath516"
       clipPathUnits="userSpaceOnUse"><path
         id="path514"
         d="M 0,0 H 6000 V 3375 H 0 Z" /></clipPath><clipPath
       id="clipPath522"
       clipPathUnits="userSpaceOnUse"><path
         id="path520"
         d="m 3219.0796,2213.5923 h 866.5928 v 835.2705 h -866.5928 z" /></clipPath><clipPath
       id="clipPath528"
       clipPathUnits="userSpaceOnUse"><path
         id="path526"
         d="m 3875.9609,2216.1028 h 209.6768 l -431.5552,830.2673 -432.5261,-830.2673 h 209.6765 l 222.8496,426.8801 z" /></clipPath><clipPath
       id="clipPath536"
       clipPathUnits="userSpaceOnUse"><path
         id="path534"
         d="M 0,0 H 865 V 831 H 0 Z" /></clipPath><clipPath
       id="clipPath552"
       clipPathUnits="userSpaceOnUse"><path
         id="path550"
         d="M 0,0 H 6000 V 3375 H 0 Z" /></clipPath><clipPath
       id="clipPath558"
       clipPathUnits="userSpaceOnUse"><path
         id="path556"
         d="M 0,0 H 6000 V 3375 H 0 Z" /></clipPath><clipPath
       id="clipPath564"
       clipPathUnits="userSpaceOnUse"><path
         id="path562"
         d="m 3963.8623,2220.553 h 821.3491 v 828.3098 h -821.3491 z" /></clipPath><clipPath
       id="clipPath570"
       clipPathUnits="userSpaceOnUse"><path
         id="path568"
         d="m 4378.7236,2884.7117 c -104.8383,0 -194.622,-64.2263 -232.2592,-155.4666 h 335.0332 v -178.9595 h -339.6465 c 34.3589,-97.7356 127.4814,-167.7287 236.9331,-167.7287 109.4521,0 202.5137,70.0539 236.9336,167.7287 h 167.3647 c -38.5478,-188.0043 -204.9419,-329.3872 -404.2983,-329.3872 -227.9488,0 -412.7363,184.7871 -412.7363,412.7359 0,227.9485 184.7875,412.7358 412.7363,412.7358 195.0469,0 358.4658,-135.2517 401.5669,-317.125 h -169.3687 c -37.6372,91.2403 -127.4204,155.4666 -232.2588,155.4666" /></clipPath><clipPath
       id="clipPath578"
       clipPathUnits="userSpaceOnUse"><path
         id="path576"
         d="M 0,0 H 818 V 827 H 0 Z" /></clipPath><clipPath
       id="clipPath594"
       clipPathUnits="userSpaceOnUse"><path
         id="path592"
         d="M 0,0 H 6000 V 3375 H 0 Z" /></clipPath><clipPath
       id="clipPath600"
       clipPathUnits="userSpaceOnUse"><path
         id="path598"
         d="M 0,0 H 6000 V 3375 H 0 Z" /></clipPath><clipPath
       id="clipPath606"
       clipPathUnits="userSpaceOnUse"><path
         id="path604"
         d="M 2427.0537,292.79825 H 4065.2576 V 1643.9264 H 2427.0537 Z" /></clipPath><clipPath
       id="clipPath612"
       clipPathUnits="userSpaceOnUse"><path
         id="path610"
         d="m 2569.585,779.79828 v 172.21881 l 92.0625,-20.78125 193.0312,-231.62506 184.0938,41.5625 -71.375,-71.28125 424.7187,68.3125 172.2188,157.37506 210.8437,-53.4375 163.3125,-106.90625 -106.9062,166.28113 -136.5938,83.15637 c 0,0 -62.3437,172.21876 -240.5312,290.99996 h -112.7813 l 35.625,-276.15621 -89.0937,-83.15625 -115.8125,299.93746 -92.0625,92.0625 65.3125,130.6563 -32.6563,53.4687 -178.1875,47.5 112.8438,-80.1875 c 0,0 -23.75,-56.4062 -154.4063,-89.0937 l -47.5,-213.8125 -139.5625,184.0937 -136.5937,14.8438 v 47.4999 l 210.8437,-20.7812 41.5625,-83.1562 14.8438,106.9062 c 0,0 100.7812,32.6563 130.5625,53.4375 l -154.3125,32.75 -296.9375,14.8438 -89.0938,136.5937 h 389 l 403.875,-121.75 5.9375,-130.6562 c 0,0 -35.625,-38.5939 -62.3437,-59.4063 l 65.3437,-86.125 65.3438,-190.0625 c 0,0 35.625,74.25 14.8437,139.5625 l -41.5625,145.5 26.7188,68.3125 h 83.1562 l 133.625,-74.2501 c 0,0 178.1563,-139.5624 237.5625,-270.2186 l 17.8125,-23.75 187.0625,-77.21876 109.875,-157.375 V 536.29828 l -112.875,-213.81253 -240.5312,-29.6875 -166.3125,160.34378 -14.8438,151.4375 68.3125,106.90625 8.9063,-154.40625 74.2187,-80.1875 145.5,35.625 20.7813,160.34375 -92.0625,100.96881 -148.4688,41.5625 -124.7187,-106.90625 -249.4375,-95.03131 -313.7188,-29.6875 -256.4375,115.8125 z" /></clipPath><clipPath
       id="clipPath620"
       clipPathUnits="userSpaceOnUse"><path
         id="path618"
         d="M 0,0 H 1637 V 1352 H 0 Z" /></clipPath><clipPath
       id="clipPath636"
       clipPathUnits="userSpaceOnUse"><path
         id="path634"
         d="M 0,0 H 6000 V 3375 H 0 Z" /></clipPath><clipPath
       id="clipPath642"
       clipPathUnits="userSpaceOnUse"><path
         id="path640"
         d="M 0,0 H 6000 V 3375 H 0 Z" /></clipPath><clipPath
       id="clipPath648"
       clipPathUnits="userSpaceOnUse"><path
         id="path646"
         d="M 2401.7468,292.79825 H 4090.6264 V 1685.7218 H 2401.7468 Z" /></clipPath><clipPath
       id="clipPath654"
       clipPathUnits="userSpaceOnUse"><path
         id="path652"
         d="m 2548.687,794.86304 v 177.54614 l 94.9104,-21.42407 199.0025,-238.79004 189.7885,42.84814 -73.583,-73.4862 437.857,70.42566 177.5461,162.24316 217.366,-55.09045 168.3645,-110.21332 -110.2134,171.42499 -140.8191,85.72865 c 0,0 -64.2722,177.5461 -247.9719,300.0017 h -116.27 l 36.727,-284.6989 -91.8496,-85.72848 -119.395,309.21568 -94.9104,94.9103 67.3327,134.698 -33.6662,55.1227 -183.6995,48.9693 116.3342,-82.6679 c 0,0 -24.4846,-58.1511 -159.1826,-91.8498 l -48.9692,-220.4265 -143.8797,189.7885 -140.8193,15.3028 v 48.9694 l 217.366,-21.4241 42.8484,-85.7286 15.3027,110.2132 c 0,0 103.8989,33.6666 134.6013,55.0906 l -159.0859,33.7631 -306.1228,15.303 -91.8499,140.8191 H 2802.78 l 416.3684,-125.5163 6.1211,-134.698 c 0,0 -36.7268,-39.7876 -64.2719,-61.2438 l 67.3649,-88.7891 67.365,-195.9419 c 0,0 36.7271,76.5468 15.303,143.8796 l -42.8481,150.001 27.5451,70.4256 h 85.7286 l 137.7587,-76.5468 c 0,0 183.667,-143.8798 244.9112,-278.5777 l 18.3633,-24.4847 192.8491,-79.60744 113.2739,-162.24316 V 543.83063 l -116.3667,-220.42655 -247.9717,-30.60583 -171.457,165.3038 -15.3032,156.12207 70.4258,110.21326 9.1816,-159.18262 76.5146,-82.66803 150.001,36.72699 21.4241,165.30383 -94.9104,104.09217 -153.0615,42.84814 -128.5767,-110.21326 -257.1536,-97.97094 -323.4233,-30.60584 -264.3701,119.39502 z" /></clipPath><clipPath
       id="clipPath662"
       clipPathUnits="userSpaceOnUse"><path
         id="path660"
         d="M 0,0 H 1688 V 1394 H 0 Z" /></clipPath><clipPath
       id="clipPath678"
       clipPathUnits="userSpaceOnUse"><path
         id="path676"
         d="M 0,0 H 6000 V 3375 H 0 Z" /></clipPath><clipPath
       id="clipPath684"
       clipPathUnits="userSpaceOnUse"><path
         id="path682"
         d="M 0,0 H 6000 V 3375 H 0 Z" /></clipPath><clipPath
       id="clipPath690"
       clipPathUnits="userSpaceOnUse"><path
         id="path688"
         d="m 2401.7468,292.79825 h 1687.5 V 1686.5482 h -1687.5 z" /></clipPath><clipPath
       id="clipPath696"
       clipPathUnits="userSpaceOnUse"><path
         id="path694"
         d="M 2401.7488,292.79825 H 4089.8985 V 1687.7769 H 2401.7488 Z" /></clipPath><clipPath
       id="clipPath702"
       clipPathUnits="userSpaceOnUse"><path
         id="path700"
         d="m 2548.6887,794.86169 v 177.54566 l 94.9102,-21.42395 199.0019,-238.78943 189.7879,42.84802 -73.5825,-73.48602 437.8557,70.42548 177.5456,162.24279 217.3653,-55.09045 168.364,-110.21289 -110.2129,171.42456 -140.8189,85.72824 c 0,0 -64.2722,177.5457 -247.9712,300.001 h -116.2697 l 36.727,-284.698 -91.8496,-85.72838 -119.3945,309.21488 -94.9102,94.9101 67.3325,134.6977 -33.6662,55.1224 -183.699,48.9693 116.334,-82.6678 c 0,0 -24.4844,-58.1509 -159.1821,-91.8495 l -48.9693,-220.426 -143.8794,189.7881 -140.8186,15.3028 v 48.9691 l 217.3655,-21.4239 42.8479,-85.7284 15.303,110.213 c 0,0 103.8984,33.6663 134.6011,55.0905 l -159.0857,33.7628 -306.1221,15.303 -91.8496,140.8187 h 401.0322 l 416.3674,-125.5159 6.1211,-134.6976 c 0,0 -36.727,-39.7875 -64.2722,-61.2438 l 67.365,-88.7888 67.3648,-195.9414 c 0,0 36.727,76.5466 15.3029,143.8793 l -42.8479,150.0006 27.545,70.4254 h 85.7285 l 137.7583,-76.5466 c 0,0 183.6665,-143.8794 244.9106,-278.5769 l 18.3633,-24.4847 192.8486,-79.60715 113.2735,-162.24279 v -278.5448 l -116.3662,-220.42594 -247.9712,-30.60577 -171.4568,165.30337 -15.303,156.12165 70.4255,110.21301 9.1819,-159.18225 76.5142,-82.66779 150.0005,36.72693 21.424,165.30335 -94.9099,104.09185 -153.061,42.84803 L 3488.5112,721.34344 3231.3584,623.3728 2907.936,592.76697 2643.5667,712.16174 Z" /></clipPath></defs><g
     clip-path="url(#clipPath14)"
     transform="matrix(1.3333333,0,0,-1.3333333,0,1090.56)"
     id="g10"><g
       transform="matrix(0.23999999,0,0,-0.23999999,0,817.91998)"
       id="g16"><g
         id="g18"><g
           clip-path="url(#clipPath24)"
           id="g20"><g
             transform="scale(3.125)"
             id="g26"><path
               id="path28"
               style="fill:#ffffff;fill-opacity:1;fill-rule:nonzero;stroke:none"
               d="M 0,0 H 1920 V 1080 H 0 Z" /></g></g></g><g
         id="g30"><g
           clip-path="url(#clipPath36)"
           id="g32"><g
             transform="scale(3.125)"
             id="g38"><path
               id="path40"
               style="fill:#000000;fill-opacity:1;fill-rule:nonzero;stroke:none"
               d="M 0,0 H 1920 V 1080 H 0 Z" /></g></g></g><g
         id="g42"><g
           clip-path="url(#clipPath48)"
           id="g44"><g
             clip-path="url(#clipPath54)"
             id="g50"><g
               clip-path="url(#clipPath60)"
               id="g56"><g
                 clip-path="url(#clipPath66)"
                 id="g62"><g
                   transform="translate(1257,1747)"
                   id="g68"><g
                     id="g70" /><g
                     id="g82"><g
                       id="g80"
                       clip-path="url(#clipPath74)"><g
                         id="g78"
                         transform="matrix(1.4583374,0,0,1.4583374,0.60620117,0.57495117)"><path
                           id="path76"
                           style="fill:#ffffff;fill-opacity:1;fill-rule:nonzero;stroke:none"
                           d="M 0,0 H 256 V 259 H 0 Z" /></g></g></g></g></g></g></g></g></g><g
         id="g84"><g
           clip-path="url(#clipPath90)"
           id="g86"><g
             clip-path="url(#clipPath96)"
             id="g92"><g
               clip-path="url(#clipPath102)"
               id="g98"><g
                 clip-path="url(#clipPath108)"
                 id="g104"><g
                   transform="translate(1795,1746)"
                   id="g110"><g
                     id="g112" /><g
                     id="g124"><g
                       id="g122"
                       clip-path="url(#clipPath116)"><g
                         id="g120"
                         transform="matrix(0.86331785,0,0,0.86331785,0.953125,0.95935059)"><path
                           id="path118"
                           style="fill:#ffffff;fill-opacity:1;fill-rule:nonzero;stroke:none"
                           d="M 0,0 H 256 V 437 H 0 Z" /></g></g></g></g></g></g></g></g></g><g
         id="g126"><g
           clip-path="url(#clipPath132)"
           id="g128"><g
             clip-path="url(#clipPath138)"
             id="g134"><g
               clip-path="url(#clipPath144)"
               id="g140"><g
                 clip-path="url(#clipPath150)"
                 id="g146"><g
                   transform="translate(2178,1749)"
                   id="g152"><g
                     id="g154" /><g
                     id="g166"><g
                       id="g164"
                       clip-path="url(#clipPath158)"><g
                         id="g162"
                         transform="matrix(0.87082517,0,0,0.87082517,0.81567383,0.00622559)"><path
                           id="path160"
                           style="fill:#ffffff;fill-opacity:1;fill-rule:nonzero;stroke:none"
                           d="M 0,0 H 256 V 431 H 0 Z" /></g></g></g></g></g></g></g></g></g><g
         id="g168"><g
           clip-path="url(#clipPath174)"
           id="g170"><g
             clip-path="url(#clipPath180)"
             id="g176"><g
               clip-path="url(#clipPath186)"
               id="g182"><g
                 clip-path="url(#clipPath192)"
                 id="g188"><g
                   transform="translate(2572,1749)"
                   id="g194"><g
                     id="g196" /><g
                     id="g208"><g
                       id="g206"
                       clip-path="url(#clipPath200)"><g
                         id="g204"
                         transform="matrix(0.8699829,0,0,0.8699829,0.27490234,0.00622559)"><path
                           id="path202"
                           style="fill:#ffffff;fill-opacity:1;fill-rule:nonzero;stroke:none"
                           d="M 0,0 H 256 V 433 H 0 Z" /></g></g></g></g></g></g></g></g></g><g
         id="g210"><g
           clip-path="url(#clipPath216)"
           id="g212"><g
             clip-path="url(#clipPath222)"
             id="g218"><g
               clip-path="url(#clipPath228)"
               id="g224"><g
                 clip-path="url(#clipPath234)"
                 id="g230"><g
                   transform="translate(2959,1748)"
                   id="g236"><g
                     id="g238" /><g
                     id="g250"><g
                       id="g248"
                       clip-path="url(#clipPath242)"><g
                         id="g246"
                         transform="matrix(0.86331785,0,0,0.86331785,0.765625,0.76879883)"><path
                           id="path244"
                           style="fill:#ffffff;fill-opacity:1;fill-rule:nonzero;stroke:none"
                           d="M 0,0 H 256 V 437 H 0 Z" /></g></g></g></g></g></g></g></g></g><g
         id="g252"><g
           clip-path="url(#clipPath258)"
           id="g254"><g
             clip-path="url(#clipPath264)"
             id="g260"><g
               clip-path="url(#clipPath270)"
               id="g266"><g
                 clip-path="url(#clipPath276)"
                 id="g272"><g
                   transform="translate(3345,1749)"
                   id="g278"><g
                     id="g280" /><g
                     id="g292"><g
                       id="g290"
                       clip-path="url(#clipPath284)"><g
                         id="g288"
                         transform="matrix(0.87576902,0,0,0.87576902,0.83447266,0.00622559)"><path
                           id="path286"
                           style="fill:#ffffff;fill-opacity:1;fill-rule:nonzero;stroke:none"
                           d="M 0,0 H 256 V 431 H 0 Z" /></g></g></g></g></g></g></g></g></g><g
         id="g294"><g
           clip-path="url(#clipPath300)"
           id="g296"><g
             clip-path="url(#clipPath306)"
             id="g302"><g
               clip-path="url(#clipPath312)"
               id="g308"><g
                 clip-path="url(#clipPath318)"
                 id="g314"><g
                   transform="translate(3730,1748)"
                   id="g320"><g
                     id="g322" /><g
                     id="g334"><g
                       id="g332"
                       clip-path="url(#clipPath326)"><g
                         id="g330"
                         transform="matrix(0.8757813,0,0,0.8757813,0.36889648,0.22192383)"><path
                           id="path328"
                           style="fill:#ffffff;fill-opacity:1;fill-rule:nonzero;stroke:none"
                           d="M 0,0 H 256 V 431 H 0 Z" /></g></g></g></g></g></g></g></g></g><g
         id="g336"><g
           clip-path="url(#clipPath342)"
           id="g338"><g
             clip-path="url(#clipPath348)"
             id="g344"><g
               clip-path="url(#clipPath354)"
               id="g350"><g
                 clip-path="url(#clipPath360)"
                 id="g356"><g
                   transform="translate(4120,1749)"
                   id="g362"><g
                     id="g364" /><g
                     id="g376"><g
                       id="g374"
                       clip-path="url(#clipPath368)"><g
                         id="g372"
                         transform="matrix(0.88737792,0,0,0.88737792,0.87841797,0.00622559)"><path
                           id="path370"
                           style="fill:#ffffff;fill-opacity:1;fill-rule:nonzero;stroke:none"
                           d="M 0,0 H 256 V 424 H 0 Z" /></g></g></g></g></g></g></g></g></g><g
         id="g378"><g
           clip-path="url(#clipPath384)"
           id="g380"><g
             clip-path="url(#clipPath390)"
             id="g386"><g
               clip-path="url(#clipPath396)"
               id="g392"><g
                 clip-path="url(#clipPath402)"
                 id="g398"><g
                   transform="translate(4506,1747)"
                   id="g404"><g
                     id="g406" /><g
                     id="g418"><g
                       id="g416"
                       clip-path="url(#clipPath410)"><g
                         id="g414"
                         transform="matrix(0.88737792,0,0,0.88737792,0.89990234,0.17175293)"><path
                           id="path412"
                           style="fill:#ffffff;fill-opacity:1;fill-rule:nonzero;stroke:none"
                           d="M 0,0 H 256 V 424 H 0 Z" /></g></g></g></g></g></g></g></g></g><g
         id="g420"><g
           clip-path="url(#clipPath426)"
           id="g422"><g
             clip-path="url(#clipPath432)"
             id="g428"><g
               clip-path="url(#clipPath438)"
               id="g434"><g
                 clip-path="url(#clipPath444)"
                 id="g440"><g
                   transform="translate(1216,2216)"
                   id="g446"><g
                     id="g448" /><g
                     id="g460"><g
                       id="g458"
                       clip-path="url(#clipPath452)"><g
                         id="g456"
                         transform="matrix(3.4802933,0,0,3.4802933,-29.411743,-30.25)"><path
                           id="path454"
                           style="fill:#ffffff;fill-opacity:1;fill-rule:nonzero;stroke:none"
                           d="M 0,0 H 1042 V 256 H 0 Z" /></g></g></g></g></g></g></g></g></g><g
         id="g462"><g
           clip-path="url(#clipPath468)"
           id="g464"><g
             clip-path="url(#clipPath474)"
             id="g470"><g
               clip-path="url(#clipPath480)"
               id="g476"><g
                 clip-path="url(#clipPath486)"
                 id="g482"><g
                   transform="translate(2527,2216)"
                   id="g488"><g
                     id="g490" /><g
                     id="g502"><g
                       id="g500"
                       clip-path="url(#clipPath494)"><g
                         id="g498"
                         transform="matrix(3.4802933,0,0,3.4802933,-1340.4117,-30.25)"><path
                           id="path496"
                           style="fill:#ffffff;fill-opacity:1;fill-rule:nonzero;stroke:none"
                           d="M 0,0 H 1042 V 256 H 0 Z" /></g></g></g></g></g></g></g></g></g><g
         id="g504"><g
           clip-path="url(#clipPath510)"
           id="g506"><g
             clip-path="url(#clipPath516)"
             id="g512"><g
               clip-path="url(#clipPath522)"
               id="g518"><g
                 clip-path="url(#clipPath528)"
                 id="g524"><g
                   transform="translate(3221,2216)"
                   id="g530"><g
                     id="g532" /><g
                     id="g544"><g
                       id="g542"
                       clip-path="url(#clipPath536)"><g
                         id="g540"
                         transform="matrix(3.4802933,0,0,3.4802933,-2034.4117,-30.25)"><path
                           id="path538"
                           style="fill:#ffffff;fill-opacity:1;fill-rule:nonzero;stroke:none"
                           d="M 0,0 H 1042 V 256 H 0 Z" /></g></g></g></g></g></g></g></g></g><g
         id="g546"><g
           clip-path="url(#clipPath552)"
           id="g548"><g
             clip-path="url(#clipPath558)"
             id="g554"><g
               clip-path="url(#clipPath564)"
               id="g560"><g
                 clip-path="url(#clipPath570)"
                 id="g566"><g
                   transform="translate(3966,2220)"
                   id="g572"><g
                     id="g574" /><g
                     id="g586"><g
                       id="g584"
                       clip-path="url(#clipPath578)"><g
                         id="g582"
                         transform="matrix(3.4802933,0,0,3.4802933,-2779.4116,-34.25)"><path
                           id="path580"
                           style="fill:#f47732;fill-opacity:1;fill-rule:nonzero;stroke:none"
                           d="M 0,0 H 1042 V 256 H 0 Z" /></g></g></g></g></g></g></g></g></g><g
         id="g588"><g
           clip-path="url(#clipPath594)"
           id="g590"><g
             clip-path="url(#clipPath600)"
             id="g596"><g
               clip-path="url(#clipPath606)"
               id="g602"><g
                 clip-path="url(#clipPath612)"
                 id="g608"><g
                   transform="translate(2427,292)"
                   id="g614"><g
                     id="g616" /><g
                     id="g628"><g
                       id="g626"
                       clip-path="url(#clipPath620)"><g
                         id="g624"
                         transform="matrix(3.1203883,0,0,3.1203883,0.05371094,0.79824829)"><path
                           id="path622"
                           style="fill:#f47732;fill-opacity:1;fill-rule:nonzero;stroke:none"
                           d="M 0,0 H 524 V 433 H 0 Z" /></g></g></g></g></g></g></g></g></g><g
         id="g630"><g
           clip-path="url(#clipPath636)"
           id="g632"><g
             clip-path="url(#clipPath642)"
             id="g638"><g
               clip-path="url(#clipPath648)"
               id="g644"><g
                 clip-path="url(#clipPath654)"
                 id="g650"><g
                   transform="translate(2401,292)"
                   id="g656"><g
                     id="g658" /><g
                     id="g670"><g
                       id="g668"
                       clip-path="url(#clipPath662)"><g
                         id="g666"
                         transform="matrix(3.2169137,0,0,3.2169137,0.74682617,0.79824829)"><path
                           id="path664"
                           style="fill:#ffffff;fill-opacity:1;fill-rule:nonzero;stroke:none"
                           d="M 0,0 H 524 V 433 H 0 Z" /></g></g></g></g></g></g></g></g></g><g
         id="g672"><g
           clip-path="url(#clipPath678)"
           id="g674"><g
             clip-path="url(#clipPath684)"
             id="g680"><g
               clip-path="url(#clipPath690)"
               id="g686"><g
                 clip-path="url(#clipPath696)"
                 id="g692"><g
                   clip-path="url(#clipPath702)"
                   id="g698"><g
                     transform="matrix(3.1250002,0,0,3.1250002,2401.7468,292.79825)"
                     id="g704"><path
                       id="path706"
                       style="fill:none;stroke:#000000;stroke-width:1;stroke-linecap:butt;stroke-linejoin:miter;stroke-miterlimit:10;stroke-dasharray:none;stroke-opacity:1"
                       d="m 47.021366,160.66032 v 56.81461 l 30.371235,-6.85568 63.680629,-76.41263 60.73214,13.71139 -23.54646,-23.51554 140.11386,22.53616 56.81461,51.91769 69.55691,-17.62893 53.87647,-35.26815 -35.26816,54.85585 -45.06201,27.43308 c 0,0 -20.56705,56.8146 -79.35077,96.0003 h -37.2063 l 11.75263,-91.10337 -29.39188,-27.43308 -38.20627,98.94878 -30.37123,30.37124 21.54645,43.10321 -10.77323,17.63923 -58.7837,15.67016 37.22693,-26.4537 c 0,0 -7.83507,-18.60828 -50.93831,-29.39185 l -15.67015,-70.53632 -46.041394,60.73218 -45.062,4.89694 v 15.67014 l 69.556924,-6.85571 13.7114,-27.43308 4.89691,35.26816 c 0,0 33.24753,10.77322 43.07231,17.62894 L 127.35152,395.77448 29.392443,400.67142 5.948937e-4,445.73343 H 128.33092 l 133.23753,-40.1651 1.95877,-43.10324 c 0,0 -11.75261,-12.732 -20.56708,-19.59799 l 21.55677,-28.41248 21.55676,-62.70122 c 0,0 11.75262,24.49492 4.89694,46.04137 l -13.71139,48.00018 8.81445,22.53614 h 27.4331 l 44.08259,-24.49494 c 0,0 58.7734,-46.04138 78.37139,-89.14461 l 5.87632,-7.83505 61.71154,-25.47432 36.24759,-51.91769 V 80.330162 L 502.55893,9.7938461 423.20816,0 l -54.86615,52.897079 -4.89694,49.958931 22.53613,35.26815 2.93817,-50.938308 24.48462,-26.453697 48.00015,11.752617 6.85569,52.897078 -30.37122,33.30939 -48.97955,13.71138 L 347.76459,137.13446 265.47565,105.78385 161.9805,95.990005 77.382294,134.19632 Z" /></g></g></g></g></g></g></g></g><path
       id="path708"
       style="fill:#000000;fill-opacity:0;fill-rule:nonzero;stroke:none"
       d="m 576.41925,413.34677 h 404.8361 v 334.30167 h -404.8361 z" /><path
       id="path710"
       style="fill:#000000;fill-opacity:0;fill-rule:nonzero;stroke:none"
       d="M 582.4929,423.3777 H 975.18165 V 747.64845 H 582.4929 Z" /><path
       id="path712"
       style="fill:#000000;fill-opacity:0;fill-rule:nonzero;stroke:none"
       d="m 301.8255,307.68076 h 89.60025 v 90.82125 H 301.8255 Z" /><path
       id="path714"
       style="fill:#000000;fill-opacity:0;fill-rule:nonzero;stroke:none"
       d="M 431.02875,308.02426 H 484.071 v 90.6255 h -53.04225 z" /><path
       id="path716"
       style="fill:#000000;fill-opacity:0;fill-rule:nonzero;stroke:none"
       d="m 522.9158,308.0235 h 53.5035 v 90.135 h -53.5035 z" /><path
       id="path718"
       style="fill:#000000;fill-opacity:0;fill-rule:nonzero;stroke:none"
       d="m 617.346,307.64777 h 53.45175 v 90.51075 H 617.346 Z" /><path
       id="path720"
       style="fill:#000000;fill-opacity:0;fill-rule:nonzero;stroke:none"
       d="M 710.34375,307.59 H 763.386 v 90.6255 h -53.04225 z" /><path
       id="path722"
       style="fill:#000000;fill-opacity:0;fill-rule:nonzero;stroke:none"
       d="m 803.00024,307.64777 h 53.80725 v 90.51075 h -53.80725 z" /><path
       id="path724"
       style="fill:#000000;fill-opacity:0;fill-rule:nonzero;stroke:none"
       d="m 895.2885,307.836 h 53.808 v 90.51075 h -53.808 z" /><path
       id="path726"
       style="fill:#000000;fill-opacity:0;fill-rule:nonzero;stroke:none"
       d="m 989.01074,307.836 h 54.52046 v 90.3225 h -54.52046 z" /><path
       id="path728"
       style="fill:#000000;fill-opacity:0;fill-rule:nonzero;stroke:none"
       d="m 1081.656,308.27625 h 54.5205 v 90.3225 h -54.5205 z" /><path
       id="path730"
       style="fill:#000000;fill-opacity:0;fill-rule:nonzero;stroke:none"
       d="m 284.7812,79.510796 h 870.4376 V 293.34001 H 284.7812 Z" /></g></svg>